<svg xmlns="http://www.w3.org/2000/svg" viewBox="0 0 282.15 368.09"><defs><style>.cls-1{fill:#fff;}.cls-2{fill:#e5e5e5;}.cls-3,.cls-7{fill:#426572;}.cls-4{opacity:0.5;}.cls-5{fill:#7490a8;}.cls-6{fill:#a9ea9c;}.cls-7{opacity:0.15;}</style></defs><title>Asset 470</title><g id="Layer_2" data-name="Layer 2"><g id="Layer_1-2" data-name="Layer 1"><path class="cls-1" d="M276.87,279.93v71.24a10.92,10.92,0,0,1-10.92,10.92H17.65A10.92,10.92,0,0,1,6.73,351.17V16.92A10.92,10.92,0,0,1,17.65,6h248.3a10.92,10.92,0,0,1,10.92,10.92V123"/><path class="cls-2" d="M6,346.15v-42a37.59,37.59,0,0,0,37.59,37.59h195a37.59,37.59,0,0,0,37.59-37.59v42a17.77,17.77,0,0,1-17.77,17.77H23.77A17.77,17.77,0,0,1,6,346.15Z"/><path class="cls-3" d="M263,368.09H19.11A19.13,19.13,0,0,1,0,349V19.11A19.13,19.13,0,0,1,19.11,0H263a19.13,19.13,0,0,1,19.11,19.11V349A19.13,19.13,0,0,1,263,368.09Zm-56.41-12H263a7.12,7.12,0,0,0,7.11-7.11V19.11A7.12,7.12,0,0,0,263,12H19.11A7.11,7.11,0,0,0,12,19.11V349a7.11,7.11,0,0,0,7.11,7.11Z"/><g class="cls-4"><path class="cls-5" d="M113.71,35.95h34.78c3.86,0,3.87-6,0-6H113.71c-3.86,0-3.87,6,0,6Z"/><path class="cls-5" d="M162.88,35.95h86.34c3.86,0,3.87-6,0-6H162.88c-3.86,0-3.87,6,0,6Z"/></g><rect class="cls-3" x="58.5" y="235.37" width="93.87" height="12"/><rect class="cls-3" x="58.5" y="283.37" width="93.87" height="12"/><rect class="cls-3" x="58.5" y="259.37" width="120.08" height="12"/><rect class="cls-6" x="65.58" y="147.18" width="36" height="49"/><rect class="cls-6" x="121.58" y="115.18" width="37" height="81"/><rect class="cls-6" x="177.58" y="73.18" width="38" height="123"/><rect class="cls-3" x="58.56" y="194.36" width="165.02" height="12"/><rect class="cls-7" x="57.56" y="200.36" width="165.02" height="12"/></g></g></svg>